HIERARCHY
ROOT Hips
{
	OFFSET 0.000000 0.000000 0.000000
	CHANNELS 6 Xposition Yposition Zposition Zrotation Yrotation Xrotation 
	JOINT LeftUpLeg_virtual
	{
		OFFSET 0.000000 0.000000 0.000000
		CHANNELS 3 Zrotation Yrotation Xrotation
		JOINT LeftUpLeg
		{
			OFFSET 8.479694 -4.795517 -0.379053
			CHANNELS 3 Zrotation Yrotation Xrotation
			JOINT LeftLeg
			{
				OFFSET 0.485052 -32.551468 0.112863
				CHANNELS 3 Zrotation Yrotation Xrotation
				JOINT LeftFoot
				{
					OFFSET 0.438033 -32.635670 -3.012641
					CHANNELS 3 Zrotation Yrotation Xrotation
					JOINT LeftToeBase
					{
						OFFSET 0.970169 -13.225353 11.864223
						CHANNELS 3 Zrotation Yrotation Xrotation
						End Site
						{
							OFFSET 0.000000 0.000000 0.000000
						}
					}
				}
			}
		}
	}
	JOINT RightUpLeg_virtual
	{
		OFFSET 0.000000 0.000000 0.000000
		CHANNELS 3 Zrotation Yrotation Xrotation
		JOINT RightUpLeg
		{
			OFFSET -8.479694 -4.795517 -0.379053
			CHANNELS 3 Zrotation Yrotation Xrotation
			JOINT RightLeg
			{
				OFFSET -0.484100 -32.551483 0.112903
				CHANNELS 3 Zrotation Yrotation Xrotation
				JOINT RightFoot
				{
					OFFSET -0.438985 -32.635651 -3.012681
					CHANNELS 3 Zrotation Yrotation Xrotation
					JOINT RightToeBase
					{
						OFFSET -0.970169 -13.225354 11.864223
						CHANNELS 3 Zrotation Yrotation Xrotation
						End Site
						{
							OFFSET 0.000000 0.000000 0.000000
						}
					}
				}
			}
		}
	}
	JOINT Spine_virtual
	{
		OFFSET 0.000000 0.000000 0.000000
		CHANNELS 3 Zrotation Yrotation Xrotation
		JOINT Spine
		{
			OFFSET 0.000000 7.722015 1.166203
			CHANNELS 3 Zrotation Yrotation Xrotation
			JOINT Spine1
			{
				OFFSET 0.000000 12.024086 0.248766
				CHANNELS 3 Zrotation Yrotation Xrotation
				JOINT Spine2
				{
					OFFSET -0.000000 11.503036 -0.491240
					CHANNELS 3 Zrotation Yrotation Xrotation
					JOINT Neck_virtual
					{
						OFFSET 0.000000 0.000000 0.000000
						CHANNELS 3 Zrotation Yrotation Xrotation
						JOINT Neck
						{
							OFFSET 0.000000 18.430687 -3.123054
							CHANNELS 3 Zrotation Yrotation Xrotation
							JOINT Head
							{
								OFFSET -0.000000 9.051071 1.034021
								CHANNELS 3 Zrotation Yrotation Xrotation
								End Site
								{
									OFFSET 0.000000 0.000000 0.000000
								}
							}
						}
					}
					JOINT LeftShoulder_virtual
					{
						OFFSET 0.000000 0.000000 0.000000
						CHANNELS 3 Zrotation Yrotation Xrotation
						JOINT LeftShoulder
						{
							OFFSET 6.197824 13.665230 -4.064723
							CHANNELS 3 Zrotation Yrotation Xrotation
							JOINT LeftArm
							{
								OFFSET 7.778132 -0.187073 -1.709282
								CHANNELS 3 Zrotation Yrotation Xrotation
								JOINT LeftForeArm
								{
									OFFSET 21.954697 0.000000 -2.041093
									CHANNELS 3 Zrotation Yrotation Xrotation
									JOINT LeftHand
									{
										OFFSET 22.992908 0.000000 -0.870901
										CHANNELS 3 Zrotation Yrotation Xrotation
										End Site
										{
											OFFSET 0.000000 0.000000 0.000000
										}
									}
								}
							}
						}
					}
					JOINT RightShoulder_virtual
					{
						OFFSET 0.000000 0.000000 0.000000
						CHANNELS 3 Zrotation Yrotation Xrotation
						JOINT RightShoulder
						{
							OFFSET -6.197824 13.665230 -4.064723
							CHANNELS 3 Zrotation Yrotation Xrotation
							JOINT RightArm
							{
								OFFSET -7.778132 -0.187073 -1.709282
								CHANNELS 3 Zrotation Yrotation Xrotation
								JOINT RightForeArm
								{
									OFFSET -21.954697 0.000000 -2.041093
									CHANNELS 3 Zrotation Yrotation Xrotation
									JOINT RightHand
									{
										OFFSET -22.992908 0.000000 -0.870901
										CHANNELS 3 Zrotation Yrotation Xrotation
										End Site
										{
											OFFSET 0.000000 0.000000 0.000000
										}
									}
								}
							}
						}
					}
				}
			}
		}
	}
}
MOTION
Frames: 13
Frame Time: 0.033333
-18.903576 82.918808 146.743500 -179.872759 3.229269 179.978859 -4.280611 0.512652 11.921980 3.080149 -1.232770 -24.251116 7.641111 9.564410 25.116016 -6.773660 -6.511383 -5.274775 0.000000 0.000000 0.000000 0.776037 -0.172261 10.028129 -1.767574 -4.730893 -15.732186 -1.555048 2.780002 20.400872 6.401794 10.681260 -4.359659 0.000000 0.000000 0.000000 4.903926 2.248190 3.639349 -4.065770 2.480025 -2.844494 0.841573 -4.109149 3.823192 0.037025 0.018528 -0.044736 0.472937 -3.123731 5.293590 2.501666 2.715163 -16.150969 0.000000 0.000000 0.000000 1.734758 -2.020481 2.365459 11.605320 5.645653 -5.983710 -12.295525 -1.346137 -45.364406 -9.757978 -9.482797 0.607217 0.000000 0.000000 0.000000 -2.050643 -0.793795 1.819083 1.554226 -7.962057 -7.391213 23.246972 -25.956642 -46.821258 0.573018 32.606100 -9.543697 0.000000 0.000000 0.000000 
-18.936689 82.930504 146.759293 -179.949366 3.272737 179.924518 -4.372902 0.505102 11.914772 2.950180 -1.075948 -24.214409 7.564057 9.832619 25.108192 -6.646809 -6.410658 -5.555837 0.000000 0.000000 0.000000 0.666807 -0.295729 10.158814 -1.745240 -5.070641 -15.804201 -1.514635 2.629501 20.420845 6.550489 10.808663 -4.611609 0.000000 0.000000 0.000000 4.758375 2.208283 3.649599 -4.018079 2.471912 -2.774152 0.824017 -4.095101 3.829062 -0.017588 0.007105 -0.015465 0.510139 -2.987580 5.203984 2.549719 2.387615 -16.111469 0.000000 0.000000 0.000000 1.787014 -1.996008 2.307557 11.645546 5.566521 -6.123570 -12.515207 -1.200307 -45.271061 -9.680129 -9.620940 0.510107 0.000000 0.000000 0.000000 -2.021015 -0.793848 1.737374 1.678770 -7.905974 -7.309165 23.074254 -25.871563 -46.738397 0.548678 32.537669 -9.502362 0.000000 0.000000 0.000000 
-18.964287 82.933823 146.782990 -179.854372 3.235698 179.980894 -4.333094 0.448771 11.834320 2.976057 -1.187183 -24.212018 7.616271 9.794484 25.088975 -6.531847 -6.348980 -5.548572 0.000000 0.000000 0.000000 0.730769 -0.382181 10.091681 -1.732540 -5.081926 -15.854098 -1.489248 2.697903 20.428194 6.551512 10.739230 -4.566667 0.000000 0.000000 0.000000 4.829693 2.195258 3.598605 -4.015655 2.434709 -2.734676 0.838156 -4.103532 3.873603 0.023059 -0.019903 0.013174 0.482869 -3.092376 5.172623 2.556140 2.431655 -16.001562 0.000000 0.000000 0.000000 1.734359 -1.942694 2.304916 11.610934 5.377357 -6.017421 -13.073995 -1.034584 -45.004612 -9.450399 -10.046325 0.597606 0.000000 0.000000 0.000000 -2.028250 -0.783021 1.755003 1.646957 -7.882082 -7.265184 22.974166 -25.687822 -46.611345 0.563841 32.599489 -9.238741 0.000000 0.000000 0.000000 
-18.974396 82.936409 146.824631 179.901773 3.229177 179.939531 -4.547856 0.442610 11.800487 2.903209 -1.374526 -24.165634 7.663188 9.647528 25.015786 -6.420107 -6.294486 -5.546303 0.000000 0.000000 0.000000 0.544640 -0.328005 10.080280 -1.801185 -4.924606 -15.863799 -1.509900 2.574020 20.543554 6.634300 10.654294 -4.543466 0.000000 0.000000 0.000000 4.629203 2.225606 3.591155 -4.097711 2.421817 -2.644793 0.818795 -4.076426 3.869161 -0.009140 -0.024235 0.015337 0.608478 -2.885242 5.145108 2.510917 2.418634 -15.851764 0.000000 0.000000 0.000000 1.893778 -1.899685 2.288571 11.427023 5.126907 -5.898869 -13.834736 -0.731601 -44.261190 -9.106878 -10.689216 0.926960 0.000000 0.000000 0.000000 -1.905430 -0.733233 1.768573 1.840844 -7.876701 -7.003674 22.770001 -25.513473 -46.345173 0.397481 32.855672 -9.120113 0.000000 0.000000 0.000000 
-18.951817 82.937431 146.855103 179.909997 3.297258 179.983585 -4.553853 0.530629 11.734104 2.936857 -1.604864 -24.187383 7.674942 9.620021 25.036101 -6.298978 -6.221826 -5.516700 0.000000 0.000000 0.000000 0.601574 -0.167287 9.981667 -1.770486 -4.984357 -15.942981 -1.501552 2.614569 20.736002 6.658466 10.561025 -4.572303 0.000000 0.000000 0.000000 4.572085 2.292928 3.537189 -4.082800 2.440831 -2.606694 0.905492 -4.005204 3.887349 0.025595 0.011135 -0.016660 0.615651 -2.927660 5.188660 2.513103 2.081148 -15.617613 0.000000 0.000000 0.000000 1.902842 -1.901597 2.335938 11.361880 4.860563 -5.942358 -15.086938 -0.270544 -43.416183 -8.681121 -11.500068 0.925998 0.000000 0.000000 0.000000 -1.898603 -0.719641 1.816000 2.004586 -7.925222 -6.973786 22.656740 -25.466999 -46.031056 0.416473 33.317533 -8.741174 0.000000 0.000000 0.000000 
-18.894688 82.940125 146.886444 179.961414 3.088022 179.955704 -4.521903 0.414106 11.704419 3.048925 -1.839536 -24.198170 7.737462 9.648295 25.132880 -6.205272 -6.164314 -5.494063 0.000000 0.000000 0.000000 0.665915 -0.357387 9.883495 -1.725558 -4.974211 -15.902422 -1.468408 2.688309 20.916239 6.608693 10.398447 -4.579611 0.000000 0.000000 0.000000 4.551694 2.371465 3.542739 -4.044092 2.443871 -2.550283 1.012446 -3.926897 3.945332 0.022582 -0.127468 -0.028564 0.715270 -2.868860 5.196992 2.483088 1.987650 -15.326171 0.000000 0.000000 0.000000 1.965490 -1.924025 2.383758 11.070792 4.464002 -5.974520 -16.594954 0.331861 -42.223919 -8.214843 -12.433454 1.299587 0.000000 0.000000 0.000000 -1.832972 -0.713137 1.790774 2.325049 -8.003150 -6.450386 22.927601 -25.210686 -45.380474 -0.090558 34.049921 -8.877334 0.000000 0.000000 0.000000 
-18.796919 82.947914 146.923538 -179.999814 3.216604 179.996221 -4.504741 0.526990 11.710370 3.196436 -2.057178 -24.268290 7.768739 9.685934 25.228448 -6.121305 -6.090445 -5.431534 0.000000 0.000000 0.000000 0.741681 -0.199998 9.953198 -1.641804 -5.048929 -16.149771 -1.446851 2.829881 21.063626 6.575326 10.272794 -4.577487 0.000000 0.000000 0.000000 4.486137 2.356153 3.526351 -4.048587 2.406489 -2.498569 1.113665 -3.877879 4.019808 -0.049596 0.028354 -0.036611 0.883774 -2.857192 5.253656 2.447590 1.818746 -14.963515 0.000000 0.000000 0.000000 2.096319 -1.814348 2.461013 10.594326 4.109276 -5.867394 -18.434634 0.951983 -40.713026 -7.732831 -13.575478 1.733102 0.000000 0.000000 0.000000 -1.670845 -0.579024 1.862523 2.740454 -8.036298 -6.119356 23.312523 -24.998955 -44.726357 -0.333612 34.936223 -8.592233 0.000000 0.000000 0.000000 
-18.642979 82.963860 146.976837 -179.980839 3.168664 -179.897989 -4.556186 0.434112 11.677434 3.318111 -2.044061 -24.414521 7.794297 9.486644 25.256033 -6.085969 -6.073870 -5.396786 0.000000 0.000000 0.000000 0.733410 -0.129876 9.918738 -1.525751 -4.866333 -16.369675 -1.467776 2.519256 21.283329 6.539288 10.123074 -4.539900 0.000000 0.000000 0.000000 4.457605 2.331623 3.482471 -4.073481 2.390018 -2.493779 1.226429 -3.799601 4.116917 0.035214 0.022000 -0.018164 0.933690 -2.810294 5.343172 2.362049 1.513236 -14.529995 0.000000 0.000000 0.000000 2.142004 -1.736655 2.538959 10.024628 3.640684 -5.826620 -20.695541 1.716879 -38.668785 -7.194297 -15.002058 2.142449 0.000000 0.000000 0.000000 -1.606297 -0.528314 1.948168 3.297344 -8.100569 -5.757718 24.011552 -24.762057 -43.779713 -0.677683 36.050739 -8.457975 0.000000 0.000000 0.000000 
-18.451731 82.979668 147.063705 179.885750 3.005832 -179.983339 -4.660232 0.274193 11.760137 3.550728 -2.277800 -24.467667 7.687512 9.316981 25.252569 -5.918281 -5.858873 -5.257577 0.000000 0.000000 0.000000 0.717200 -0.373377 9.962751 -1.400927 -5.055375 -16.531778 -1.442719 2.732384 21.549083 6.419480 10.041487 -4.552623 0.000000 0.000000 0.000000 4.358486 2.254209 3.532483 -4.141346 2.319260 -2.350660 1.279477 -3.751419 4.334246 0.093522 -0.029957 0.022392 1.044120 -2.657843 5.368032 2.258348 1.407370 -14.036431 0.000000 0.000000 0.000000 2.248979 -1.565960 2.568546 9.260635 3.103538 -5.649035 -23.315761 2.426290 -36.051060 -6.646650 -16.792597 2.687384 0.000000 0.000000 0.000000 -1.481677 -0.468070 2.029259 3.956677 -8.160428 -5.381696 24.993773 -24.512943 -42.502276 -1.031574 37.371008 -8.335396 0.000000 0.000000 0.000000 
-18.219879 82.994278 147.183289 179.881870 2.896504 179.992410 -4.670299 0.202512 11.781218 3.862861 -2.552045 -24.593334 7.619131 9.267867 25.226228 -5.894361 -5.830001 -5.125488 0.000000 0.000000 0.000000 0.719136 -0.429741 9.999749 -1.207108 -4.994120 -16.704570 -1.449067 2.633242 21.763638 6.259454 9.932161 -4.496530 0.000000 0.000000 0.000000 4.336708 2.273224 3.613503 -4.147546 2.311968 -2.242675 1.364882 -3.628188 4.532324 -0.020979 -0.008785 0.006521 1.241885 -2.496440 5.540598 2.204649 1.199113 -13.505202 0.000000 0.000000 0.000000 2.438707 -1.571518 2.707639 8.330720 2.420323 -5.605140 -26.331580 3.202419 -33.034644 -6.228958 -18.965899 3.006042 0.000000 0.000000 0.000000 -1.280339 -0.390114 2.148243 4.772145 -8.266020 -4.963612 26.379563 -24.478717 -40.803277 -1.407988 38.902941 -8.259696 0.000000 0.000000 0.000000 
-17.951870 82.996750 147.326111 179.905940 2.803664 -179.995442 -4.688898 0.253264 11.787285 4.229010 -2.804019 -24.747329 7.655190 9.332680 25.293466 -6.067592 -5.972191 -4.950385 0.000000 0.000000 0.000000 0.740515 -0.376852 9.971872 -0.966118 -4.964756 -16.914701 -1.421225 2.546917 21.921803 5.996922 9.822066 -4.554665 0.000000 0.000000 0.000000 4.329996 2.321379 3.659625 -4.122825 2.270337 -2.092846 1.453946 -3.528964 4.783463 -0.021160 -0.011117 0.026426 1.365155 -2.442936 5.699429 2.089442 1.130392 -12.896992 0.000000 0.000000 0.000000 2.548307 -1.494167 2.835506 7.164093 1.744711 -5.443065 -29.699213 3.873084 -29.729638 -5.850483 -21.478221 3.505312 0.000000 0.000000 0.000000 -1.174900 -0.305276 2.300352 5.678689 -8.338961 -4.562045 28.044091 -24.486218 -38.654677 -1.803840 40.563206 -8.253823 0.000000 0.000000 0.000000 
-17.668760 82.991081 147.512985 -179.988981 2.786208 -179.989582 -4.676874 0.422385 11.767307 4.596525 -2.779158 -24.960578 7.465033 8.959228 25.325933 -6.054161 -5.945448 -4.856595 0.000000 0.000000 0.000000 0.796259 -0.178150 9.985022 -0.661468 -4.916965 -17.054837 -1.368070 2.436862 22.021368 5.648513 9.701875 -4.603963 0.000000 0.000000 0.000000 4.352561 2.438097 3.744206 -4.032432 2.247378 -1.920535 1.550090 -3.399152 5.039157 -0.019753 0.022914 -0.010979 1.455224 -2.398666 5.942742 1.978310 0.998587 -12.260926 0.000000 0.000000 0.000000 2.602981 -1.348906 3.090986 5.867381 1.061053 -5.335266 -33.366785 4.433148 -26.365044 -5.548628 -24.069593 3.931526 0.000000 0.000000 0.000000 -1.080197 -0.216670 2.534242 6.688372 -8.392636 -4.203596 29.896722 -24.577797 -36.014170 -2.208973 42.353313 -8.323037 0.000000 0.000000 0.000000 
-17.350107 82.981537 147.738571 179.910502 2.512086 179.993243 -4.763888 0.453303 11.755164 4.966381 -2.952137 -25.180445 7.308617 8.648118 25.417542 -6.006358 -5.890665 -4.675465 0.000000 0.000000 0.000000 0.709062 -0.233047 9.962675 -0.388293 -4.903225 -17.248622 -1.338324 2.366197 22.143900 5.279264 9.651816 -4.682580 0.000000 0.000000 0.000000 4.258894 2.551905 3.860291 -4.052066 2.146745 -1.715771 1.631364 -3.331941 5.328103 0.040356 -0.001865 0.013264 1.541332 -2.282538 6.079022 1.864818 0.874492 -11.616827 0.000000 0.000000 0.000000 2.673376 -1.333911 3.164285 4.345546 0.418967 -5.087944 -37.129783 4.741067 -23.071496 -5.345998 -26.537110 4.370747 0.000000 0.000000 0.000000 -1.011099 -0.159391 2.651177 7.711781 -8.433882 -3.785086 31.922904 -24.701755 -33.192462 -2.627130 44.283870 -8.421450 0.000000 0.000000 0.000000 
